<svg width="40" height="32" viewBox="0 0 40 32" fill="none" xmlns="http://www.w3.org/2000/svg">
<path d="M4.66666 31.3332C3.6125 31.3332 2.70975 30.9575 1.95841 30.2062C1.20708 29.4548 0.832054 28.5527 0.833332 27.4998V4.49984C0.833332 3.44567 1.209 2.54292 1.96033 1.79159C2.71166 1.04026 3.61378 0.665229 4.66666 0.666507H35.3333C36.3875 0.666507 37.2902 1.04217 38.0416 1.79351C38.7929 2.54484 39.1679 3.44695 39.1667 4.49984V27.4998C39.1667 28.554 38.791 29.4568 38.0397 30.2081C37.2883 30.9594 36.3862 31.3345 35.3333 31.3332H4.66666ZM20 17.9165L4.66666 8.33317V27.4998H35.3333V8.33317L20 17.9165ZM20 14.0832L35.3333 4.49984H4.66666L20 14.0832ZM4.66666 8.33317V4.49984V27.4998V8.33317Z" fill="url(#paint0_linear_110_223)"/>
<defs>
<linearGradient id="paint0_linear_110_223" x1="20" y1="0.666504" x2="20" y2="31.3332" gradientUnits="userSpaceOnUse">
<stop stop-color="#FFB82D"/>
<stop offset="1" stop-color="#FFA800"/>
</linearGradient>
</defs>
</svg>
