<svg width="41" height="47" viewBox="0 0 41 47" fill="none" xmlns="http://www.w3.org/2000/svg">
<path d="M30.25 17H34.5V10.625H40.875V6.375H34.5V0H30.25V6.375H23.875V10.625H30.25V17ZM17.5 25.5C18.6688 25.5 19.6696 25.0835 20.5026 24.2505C21.3356 23.4175 21.7514 22.4173 21.75 21.25C21.75 20.0812 21.3335 19.0804 20.5005 18.2474C19.6675 17.4144 18.6673 16.9986 17.5 17C16.3313 17 15.3304 17.4165 14.4974 18.2495C13.6644 19.0825 13.2486 20.0827 13.25 21.25C13.25 22.4188 13.6665 23.4196 14.4995 24.2526C15.3325 25.0856 16.3327 25.5014 17.5 25.5ZM17.5 46.75C11.7979 41.8979 7.53942 37.3915 4.7245 33.2307C1.90958 29.07 0.501417 25.2181 0.5 21.675C0.5 16.3625 2.20921 12.1302 5.62763 8.97812C9.04604 5.82604 13.0035 4.25 17.5 4.25C17.8542 4.25 18.2083 4.25921 18.5625 4.27763C18.9167 4.29604 19.2708 4.32225 19.625 4.35625V8.65937C19.2708 8.58854 18.9252 8.54392 18.588 8.5255C18.2508 8.50708 17.8882 8.49858 17.5 8.5C13.9229 8.5 10.9033 9.73108 8.44112 12.1932C5.97896 14.6554 4.74858 17.816 4.75 21.675C4.75 24.1896 5.79479 27.0675 7.88437 30.3089C9.97396 33.5502 13.1792 37.1535 17.5 41.1188C21.8208 37.1521 25.026 33.5481 27.1156 30.3067C29.2052 27.0654 30.25 24.1882 30.25 21.675V21.25H34.5V21.675C34.5 25.2167 33.0918 29.0686 30.2755 33.2307C27.4592 37.3929 23.2007 41.8993 17.5 46.75Z" fill="url(#paint0_linear_110_225)"/>
<defs>
<linearGradient id="paint0_linear_110_225" x1="20.6875" y1="0" x2="20.6875" y2="46.75" gradientUnits="userSpaceOnUse">
<stop stop-color="#FFB82D"/>
<stop offset="1" stop-color="#FFA800"/>
</linearGradient>
</defs>
</svg>
