<svg width="39" height="39" viewBox="0 0 39 39" fill="none" xmlns="http://www.w3.org/2000/svg">
<path d="M36.5 19.5C35.9333 19.5 35.4283 19.296 34.9849 18.888C34.5415 18.48 34.2858 17.9757 34.2178 17.375C33.7573 14.0813 32.3669 11.2741 30.0464 8.95363C27.7259 6.63313 24.9188 5.24337 21.625 4.78437C21.0229 4.71354 20.5179 4.46562 20.1099 4.04062C19.7019 3.61562 19.4986 3.10208 19.5 2.5C19.5 1.89792 19.7125 1.39287 20.1375 0.984875C20.5625 0.576875 21.0583 0.409 21.625 0.48125C26.0875 0.977083 29.8948 2.80104 33.0469 5.95312C36.199 9.10521 38.0229 12.9125 38.5188 17.375C38.5896 17.9417 38.421 18.4375 38.013 18.8625C37.605 19.2875 37.1007 19.5 36.5 19.5ZM27.6281 19.5C27.1677 19.5 26.7604 19.3406 26.4063 19.0219C26.0521 18.7031 25.7865 18.2781 25.6094 17.7469C25.326 16.7198 24.7856 15.8075 23.988 15.0099C23.1904 14.2123 22.2788 13.6725 21.2531 13.3906C20.7219 13.2135 20.2969 12.9479 19.9781 12.5938C19.6594 12.2396 19.5 11.8146 19.5 11.3187C19.5 10.6104 19.7479 10.0345 20.2438 9.59112C20.7396 9.14771 21.2885 8.99754 21.8906 9.14062C23.874 9.60104 25.5832 10.5488 27.0183 11.9839C28.4533 13.419 29.4004 15.1275 29.8594 17.1094C30.001 17.7115 29.8417 18.2604 29.3813 18.7562C28.9208 19.2521 28.3365 19.5 27.6281 19.5ZM36.3938 38.625C31.825 38.625 27.371 37.6064 23.0318 35.5693C18.6925 33.5321 14.8498 30.8404 11.5036 27.4942C8.15746 24.1481 5.46579 20.3054 3.42863 15.9661C1.39146 11.6269 0.373585 7.17358 0.375001 2.60625C0.375001 1.96875 0.587501 1.4375 1.0125 1.0125C1.4375 0.5875 1.96875 0.375 2.60625 0.375H11.2125C11.7083 0.375 12.151 0.534375 12.5406 0.853125C12.9302 1.17187 13.1604 1.57917 13.2313 2.075L14.6125 9.5125C14.6833 10.0083 14.6741 10.4603 14.5849 10.8683C14.4956 11.2763 14.2923 11.6389 13.975 11.9562L8.875 17.1625C10.3625 19.7125 12.2219 22.1031 14.4531 24.3344C16.6844 26.5656 19.1458 28.4958 21.8375 30.125L26.8313 25.1312C27.15 24.8125 27.5665 24.5738 28.0808 24.4151C28.595 24.2565 29.0993 24.2118 29.5938 24.2812L36.925 25.7687C37.4208 25.875 37.8281 26.1144 38.1469 26.487C38.4656 26.8596 38.625 27.2931 38.625 27.7875V36.3938C38.625 37.0312 38.4125 37.5625 37.9875 37.9875C37.5625 38.4125 37.0312 38.625 36.3938 38.625Z" fill="url(#paint0_linear_110_221)"/>
<defs>
<linearGradient id="paint0_linear_110_221" x1="19.5" y1="0.375" x2="19.5" y2="38.625" gradientUnits="userSpaceOnUse">
<stop stop-color="#FFB82D"/>
<stop offset="1" stop-color="#FFA800"/>
</linearGradient>
</defs>
</svg>
