<svg width="47" height="47" viewBox="0 0 47 47" fill="none" xmlns="http://www.w3.org/2000/svg">
<path d="M23.5 0.939941C11.0403 0.939941 0.940002 11.0402 0.940002 23.4999C0.940002 35.9596 11.0403 46.0599 23.5 46.0599C35.9597 46.0599 46.06 35.9596 46.06 23.4999C46.06 11.0402 35.9597 0.939941 23.5 0.939941ZM32.1762 26.3928C32.1762 26.3928 34.1714 28.3621 34.6625 29.2762C34.6766 29.295 34.6837 29.3138 34.6884 29.3232C34.8881 29.6593 34.9351 29.9201 34.8364 30.1152C34.6719 30.4395 34.1079 30.5993 33.9152 30.6134H30.3902C30.1458 30.6134 29.6335 30.5499 29.0131 30.1222C28.5361 29.7885 28.0661 29.241 27.6078 28.7075C26.924 27.9132 26.3318 27.227 25.7349 27.227C25.659 27.2269 25.5837 27.2388 25.5116 27.2623C25.0604 27.408 24.4823 28.0519 24.4823 29.7674C24.4823 30.3032 24.0593 30.611 23.7609 30.611H22.1464C21.5965 30.611 18.7319 30.4183 16.1939 27.7417C13.0872 24.4634 10.2907 17.8881 10.2672 17.827C10.0909 17.4017 10.4552 17.1737 10.8523 17.1737H14.4126C14.8873 17.1737 15.0424 17.4628 15.1505 17.7189C15.2774 18.0174 15.7427 19.2041 16.5064 20.5389C17.7449 22.715 18.5039 23.5986 19.1126 23.5986C19.2267 23.5973 19.3388 23.5683 19.4392 23.514C20.2335 23.0722 20.0855 20.2405 20.0502 19.653C20.0502 19.5425 20.0479 18.3863 19.6413 17.8317C19.3499 17.4299 18.8541 17.2771 18.5533 17.2207C18.675 17.0527 18.8354 16.9165 19.0209 16.8236C19.5661 16.551 20.5484 16.511 21.5237 16.511H22.0665C23.124 16.5251 23.3966 16.5933 23.7797 16.6896C24.5552 16.8753 24.5716 17.3758 24.5035 19.089C24.4823 19.5754 24.4612 20.1253 24.4612 20.7739C24.4612 20.9149 24.4541 21.0653 24.4541 21.2251C24.4306 22.097 24.4024 23.0863 25.0181 23.4929C25.0984 23.5432 25.1912 23.5701 25.286 23.5704C25.4999 23.5704 26.1438 23.5704 27.8875 20.5789C28.4252 19.616 28.8925 18.6154 29.2857 17.585C29.321 17.5239 29.4244 17.3359 29.5466 17.263C29.6367 17.2171 29.7367 17.1937 29.838 17.1949H34.0233C34.4792 17.1949 34.7918 17.263 34.8505 17.4393C34.9539 17.7189 34.8317 18.572 32.9212 21.1593L32.0681 22.285C30.3362 24.5551 30.3362 24.6702 32.1762 26.3928Z" fill="#338AB7"/>
</svg>
